<svg height='100px' width='100px'  fill="#000000" xmlns="http://www.w3.org/2000/svg" xmlns:xlink="http://www.w3.org/1999/xlink" version="1.1" x="0px" y="0px" viewBox="0 0 35 35" enable-background="new 0 0 35 35" xml:space="preserve"><g><path d="M6.4998,3.5015h3.5005c0.5522,0,1-0.4473,1-1s-0.4478-1-1-1H6.4998c-2.7568,0-5,2.2432-5,5v21.9971c0,2.7568,2.2432,5,5,5   h3.5005c0.5522,0,1-0.4473,1-1c0-0.5527-0.4478-1-1-1H6.4998c-1.6543,0-3-1.3457-3-3V6.5015   C3.4998,4.8472,4.8455,3.5015,6.4998,3.5015z"></path><path d="M21.1169,29.4243c1.3403,0.5593,1.9412-1.6595,12.0903-11.2168c0.1875-0.1875,0.293-0.4414,0.293-0.707   s-0.1055-0.5195-0.293-0.707l-11.0005-11c-0.2871-0.2861-0.7158-0.374-1.0898-0.2168c-0.3735,0.1543-0.6172,0.5195-0.6172,0.9238v6   H7.5002c-0.5522,0-1,0.4473-1,1v8c0,0.5527,0.4478,1,1,1h12.9995v6C20.4998,28.9048,20.7434,29.27,21.1169,29.4243z    M8.5002,20.5005v-6h12.9995c0.5522,0,1-0.4473,1-1V8.9146l8.5864,8.5859l-8.5864,8.5859v-4.5859c0-0.5527-0.4478-1-1-1H8.5002z"></path></g></svg>