<svg height='100px' width='100px'  fill="#000000" xmlns="http://www.w3.org/2000/svg" xmlns:xlink="http://www.w3.org/1999/xlink" version="1.1" x="0px" y="0px" viewBox="0 0 35 35" enable-background="new 0 0 35 35" xml:space="preserve"><g><path d="M6.4998,3.502h3.5005c0.5522,0,1-0.4473,1-1s-0.4478-1-1-1H6.4998c-2.7568,0-5,2.2432-5,5v21.9961c0,2.7568,2.2432,5,5,5   h3.5005c0.5522,0,1-0.4473,1-1c0-0.5527-0.4478-1-1-1H6.4998c-1.6543,0-3-1.3457-3-3V6.502   C3.4998,4.8477,4.8455,3.502,6.4998,3.502z"></path><path d="M32.4998,12.5H19.5002v-6c0-0.4043-0.2437-0.7695-0.6172-0.9238c-0.3745-0.1572-0.8042-0.0703-1.0898,0.2168l-11,11   c-0.3906,0.3906-0.3906,1.0234,0,1.4141l11,11c0.2906,0.2906,0.7238,0.3695,1.0898,0.2168   c0.3735-0.1543,0.6172-0.5195,0.6172-0.9238v-6h13c0.2651,0,0.5195-0.1055,0.707-0.293s0.293-0.4414,0.293-0.707l-0.0005-8   C33.4998,12.9473,33.052,12.5,32.4998,12.5z M18.5002,20.5c-0.5522,0-1,0.4473-1,1v4.5859L8.9143,17.5l8.5859-8.5859V13.5   c0,0.5527,0.4478,1,1,1h12.9995l0.0005,6H18.5002z"></path></g></svg>