<?xml version="1.0" encoding="UTF-8"?>
<svg fill="#FFFFFF" width="100pt" height="100pt" version="1.1" viewBox="0 0 100 100" xmlns="http://www.w3.org/2000/svg">
 <path d="m82.801 95.91-32.801-32.789-32.801 32.789c-1.7344 1.7422-4.0938 2.7227-6.5547 2.7227-2.4609 0-4.8203-0.98047-6.5547-2.7227-1.7422-1.7344-2.7227-4.0938-2.7227-6.5547 0-2.4609 0.98047-4.8203 2.7227-6.5547l32.789-32.801-32.789-32.801c-1.7422-1.7344-2.7227-4.0938-2.7227-6.5547 0-2.4609 0.98047-4.8203 2.7227-6.5547 1.7344-1.7422 4.0938-2.7227 6.5547-2.7227 2.4609 0 4.8203 0.98047 6.5547 2.7227l32.801 32.789 32.801-32.789c1.7344-1.7422 4.0938-2.7227 6.5547-2.7227 2.4609 0 4.8203 0.98047 6.5547 2.7227 1.7422 1.7344 2.7227 4.0938 2.7227 6.5547 0 2.4609-0.98047 4.8203-2.7227 6.5547l-32.789 32.801 32.789 32.801c1.7422 1.7344 2.7227 4.0938 2.7227 6.5547 0 2.4609-0.98047 4.8203-2.7227 6.5547-1.7344 1.7422-4.0938 2.7227-6.5547 2.7227-2.4609 0-4.8203-0.98047-6.5547-2.7227z"/>
</svg>
