<svg height='100px' width='100px'  fill="#000000" xmlns:dc="http://purl.org/dc/elements/1.1/" xmlns:cc="http://creativecommons.org/ns#" xmlns:rdf="http://www.w3.org/1999/02/22-rdf-syntax-ns#" xmlns:svg="http://www.w3.org/2000/svg" xmlns="http://www.w3.org/2000/svg" xmlns:sodipodi="http://sodipodi.sourceforge.net/DTD/sodipodi-0.dtd" xmlns:inkscape="http://www.inkscape.org/namespaces/inkscape" viewBox="0 0 100 100" version="1.1" x="0px" y="0px"><g transform="translate(0,-952.36216)"><path style="color:#000000;font-style:normal;font-variant:normal;font-weight:normal;font-stretch:normal;font-size:medium;line-height:normal;font-family:sans-serif;text-indent:0;text-align:start;text-decoration:none;text-decoration-line:none;text-decoration-style:solid;text-decoration-color:#000000;letter-spacing:normal;word-spacing:normal;text-transform:none;direction:ltr;block-progression:tb;writing-mode:lr-tb;baseline-shift:baseline;text-anchor:start;white-space:normal;clip-rule:nonzero;display:inline;overflow:visible;visibility:visible;opacity:1;isolation:auto;mix-blend-mode:normal;color-interpolation:sRGB;color-interpolation-filters:linearRGB;solid-color:#000000;solid-opacity:1;fill:#000000;fill-opacity:1;fill-rule:evenodd;stroke:none;stroke-width:2;stroke-linecap:butt;stroke-linejoin:miter;stroke-miterlimit:4;stroke-dasharray:none;stroke-dashoffset:0;stroke-opacity:1;color-rendering:auto;image-rendering:auto;shape-rendering:auto;text-rendering:auto;enable-background:accumulate" d="m 50,957.36214 c -3.49829,0 -6.32881,1.80127 -11.41427,4.73735 l -17.74689,10.25053 c -5.08544,2.9361 -8.06014,4.48616 -9.80928,7.51575 -1.74913,3.02963 -1.60496,6.3761 -1.60496,12.24828 l 0,20.49625 c 0,5.8722 -0.14424,9.2235 1.60496,12.2531 1.74916,3.0296 4.72382,4.5748 9.80928,7.5109 l 17.74689,10.2505 c 5.08546,2.9361 7.91598,4.7374 11.41427,4.7374 3.49829,0 6.32878,-1.8013 11.41424,-4.7374 l 17.7469,-10.2505 c 5.08546,-2.9361 8.06014,-4.4813 9.80927,-7.5109 1.74916,-3.0296 1.60499,-6.3809 1.60499,-12.2531 l 0,-20.49625 c 0,-5.8722 0.14424,-9.21865 -1.60499,-12.24828 -1.74913,-3.02959 -4.72381,-4.57967 -9.80927,-7.51575 L 61.41424,962.09949 C 56.32878,959.16341 53.49829,957.36214 50,957.36214 Z m 0,4.96525 c 1.58717,0 3.84616,1.13697 8.93162,4.07307 l 17.74689,10.24567 0,0.005 c 3.01532,1.74091 4.89822,2.91202 6.16776,3.88396 l -23.91465,13.80474 c -5.08546,2.9361 -7.34445,4.07307 -8.93162,4.07307 -1.58717,0 -3.84618,-1.13697 -8.93164,-4.07307 L 17.1537,980.53509 c 1.26957,-0.97333 3.15247,-2.14791 6.16776,-3.8888 l 0,0.005 17.7469,-10.25051 c 5.08546,-2.9361 7.34447,-4.07307 8.93164,-4.07307 z m 0,3.016 c -3.30554,1.2e-4 -5.98333,1.54881 -5.98352,3.45725 1.9e-4,1.90844 2.678,3.45713 5.98352,3.45725 3.30552,-1.2e-4 5.98814,-1.54881 5.98836,-3.45725 -1.9e-4,-0.89901 -0.60734,-1.76502 -1.69228,-2.40988 C 53.16912,965.72077 51.6176,965.34348 50,965.34339 Z m 20.0404,11.56943 c -3.30552,9e-5 -5.98333,1.54881 -5.9835,3.45725 1.7e-4,1.90847 2.67795,3.45713 5.9835,3.45725 3.30551,-1.2e-4 5.98332,-1.54881 5.98352,-3.45725 -2e-4,-0.93394 -0.65308,-1.82711 -1.81348,-2.47778 -1.11694,-0.6264 -2.61289,-0.97938 -4.17004,-0.97947 z m -40.08082,0.005 c -3.30554,10e-5 -5.98817,1.54395 -5.98836,3.45241 2.2e-4,1.90845 2.68284,3.45716 5.98836,3.45726 3.30554,-10e-5 5.98333,-1.54879 5.98352,-3.45726 10e-4,-0.93421 -0.65335,-1.82654 -1.81348,-2.47778 -1.11798,-0.62622 -2.61239,-0.9753 -4.17004,-0.97463 z m -15.2885,7.91823 23.91465,13.80474 c 5.08546,2.93611 7.19736,4.32291 7.99095,5.69741 0.79357,1.3746 0.94069,3.8984 0.94069,9.7705 l 0,27.6192 c -1.47706,-0.6139 -3.43411,-1.6632 -6.44901,-3.4039 l -17.7469,-10.2456 c -5.08546,-2.9361 -7.19735,-4.323 -7.99095,-5.6975 -0.79357,-1.3745 -0.94066,-3.8983 -0.94066,-9.7705 l 0,-20.49618 c 0,-3.47883 0.0742,-5.69383 0.28123,-7.27817 z m 70.65782,0 c 0.20705,1.58432 0.28125,3.79934 0.28125,7.27817 l 0,20.49618 c 0,5.8722 -0.14722,8.396 -0.94069,9.7705 -0.79359,1.3745 -2.90549,2.7614 -7.99095,5.6975 l -17.74689,10.2456 c -3.0149,1.7407 -4.97198,2.79 -6.44899,3.4039 l 0,-27.6192 c 0,-5.8721 0.14697,-8.3959 0.94066,-9.7705 0.7936,-1.3745 2.90549,-2.7613 7.99095,-5.69741 L 85.3289,984.83605 Z M 50,988.48725 c -3.30554,1.2e-4 -5.98817,1.54395 -5.98836,3.45239 1.9e-4,1.90844 2.68282,3.45713 5.98836,3.45725 3.30554,-1.2e-4 5.9833,-1.54878 5.9835,-3.45725 10e-4,-0.89928 -0.60278,-1.75956 -1.68742,-2.40502 -1.128,-0.66981 -2.67798,-1.04804 -4.29608,-1.04737 z m -30.65461,2.07046 c -0.51951,-0.0566 -0.99687,0.0285 -1.40132,0.26184 -1.65266,0.9544 -1.65266,4.04693 0,6.90967 1.65288,2.86258 4.33062,4.41128 5.9835,3.45728 1.65266,-0.9544 1.65266,-4.04695 0,-6.90969 -0.77867,-1.34847 -1.82776,-2.46855 -2.92873,-3.12267 -0.57185,-0.33983 -1.13394,-0.5398 -1.65345,-0.59643 z m 19.98223,11.56459 c -0.49782,-0.044 -0.95867,0.042 -1.34799,0.2667 -1.65266,0.9544 -1.65266,4.0469 0,6.9096 1.65285,2.8627 4.3355,4.4114 5.98836,3.4573 1.65266,-0.9544 1.65266,-4.0469 0,-6.9096 -0.80889,-1.4009 -1.9111,-2.5545 -3.05479,-3.1955 -0.55048,-0.3086 -1.08779,-0.4841 -1.58558,-0.5285 z m -9.96444,5.7896 c -0.51954,-0.057 -0.9969,0.029 -1.40134,0.2618 -1.65266,0.9544 -1.65266,4.0469 0,6.9097 1.65285,2.8626 4.33066,4.4113 5.98352,3.4572 1.65268,-0.9544 1.65268,-4.0469 0,-6.9096 -0.77865,-1.3485 -1.82778,-2.4686 -2.92873,-3.1227 -0.57185,-0.3398 -1.13394,-0.5398 -1.65345,-0.5964 z m 41.27364,0 c -0.51951,0.057 -1.08163,0.2566 -1.65348,0.5964 -1.10094,0.6541 -2.15007,1.7742 -2.92872,3.1227 -1.65269,2.8627 -1.65269,5.9552 0,6.9096 1.65285,0.9541 4.33066,-0.5898 5.98352,-3.4524 1.65266,-2.8627 1.65266,-5.9601 0,-6.9145 -0.40445,-0.2333 -0.8818,-0.3184 -1.40132,-0.2618 z m -51.34962,5.7798 c -0.49779,-0.044 -0.954,0.046 -1.34313,0.2716 -1.65266,0.9544 -1.65266,4.0469 0,6.9096 1.65288,2.8626 4.33062,4.4113 5.9835,3.4573 1.65266,-0.9544 1.65266,-4.0518 0,-6.9145 -0.80849,-1.4017 -1.91075,-2.5535 -3.05479,-3.1954 -0.55065,-0.3083 -1.08777,-0.4846 -1.58558,-0.5286 z m 20.09374,11.5743 c -0.51951,-0.056 -0.99709,0.033 -1.40131,0.2667 -1.65269,0.9544 -1.65269,4.0469 0,6.9097 1.65285,2.8626 4.3355,4.4113 5.98836,3.4572 1.65268,-0.9544 1.65268,-4.0469 0,-6.9097 -0.77825,-1.3492 -1.83228,-2.4724 -2.93357,-3.1275 -0.57204,-0.3395 -1.13396,-0.5403 -1.65348,-0.5964 z"></path></g></svg>